<?xml version="1.0" encoding="UTF-8" standalone="no"?>
<!-- Created with Inkscape (http://www.inkscape.org/) -->

<svg
   width="202.98682mm"
   height="197.36697mm"
   viewBox="0 0 202.98682 197.36697"
   version="1.1"
   id="svg1"
   xml:space="preserve"
   inkscape:version="1.3.2 (091e20e, 2023-11-25)"
   xmlns:inkscape="http://www.inkscape.org/namespaces/inkscape"
   xmlns:sodipodi="http://sodipodi.sourceforge.net/DTD/sodipodi-0.dtd"
   xmlns="http://www.w3.org/2000/svg"
   xmlns:svg="http://www.w3.org/2000/svg"><sodipodi:namedview
     id="namedview1"
     pagecolor="#ffffff"
     bordercolor="#000000"
     borderopacity="0.25"
     inkscape:showpageshadow="2"
     inkscape:pageopacity="0.0"
     inkscape:pagecheckerboard="0"
     inkscape:deskcolor="#d1d1d1"
     inkscape:document-units="mm"
     inkscape:zoom="0.70734109"
     inkscape:cx="204.99304"
     inkscape:cy="238.92292"
     inkscape:window-width="960"
     inkscape:window-height="1027"
     inkscape:window-x="0"
     inkscape:window-y="25"
     inkscape:window-maximized="0"
     inkscape:current-layer="layer1" /><defs
     id="defs1" /><g
     inkscape:label="Layer 1"
     inkscape:groupmode="layer"
     id="layer1"
     transform="translate(-5.2946354,-38.216206)"><path
       style="fill:#070707;stroke:none"
       d="m 23.639081,106.13769 c -0.138285,2.70013 -2.208192,5.66802 -3.292592,8.11321 -2.764365,6.23334 -6.090394,12.25347 -9.527722,18.13417 -2.8168715,4.81919 -5.5241316,7.15145 -5.5241316,12.91096 h 0.1763889 c 6.9951897,-10.14835 13.2634267,-19.80531 18.2780277,-31.16979 0.855928,-1.93978 5.091583,-9.03654 3.915263,-10.92646 -1.096415,-1.76153 -5.207946,0.56438 -6.814792,0.0249 -1.191711,-0.40009 -0.833487,-1.84469 -1.514821,-2.63046 -0.789837,-0.910889 -3.168218,-0.21843 -4.162288,0.0754 0.29233,-2.097479 3.640122,-4.638949 5.115278,-6.114819 4.573099,-4.57531 9.083312,-9.1268 13.843533,-13.509262 21.121857,-19.445648 49.354486,-36.847492 78.407855,-39.612612 10.3432,-0.984414 19.68322,2.246353 28.39862,7.475556 1.31484,0.788905 8.33715,3.80767 7.53218,5.53067 -0.92261,1.974825 -7.00909,-2.146296 -8.48787,-2.851559 -5.26344,-2.551067 -13.41083,-2.710935 -19.50543,-1.703783 -2.7597,0.456044 -6.23131,1.282045 -8.82733,2.447263 -3.15505,1.524801 -7.61051,4.398335 -10.74938,8.314891 -4.449532,5.551965 -6.934426,13.32676 -12.953697,17.420308 -3.785923,2.574713 -8.681382,3.7752 -13.154312,4.398429 -2.366086,0.329674 -5.180481,0.07358 -7.231944,1.447999 1.189693,3.95688 10.709085,6.72536 14.271712,7.7841 0.846842,0.25167 5.202331,1.06234 4.933172,2.22923 -0.41354,1.79282 -5.54894,4.18691 -7.209761,4.40157 -2.85395,0.36887 -6.408158,-2.39308 -9.172901,-3.0464 -3.787398,-0.89497 -7.350203,-0.12692 -11.112501,0.2669 -1.135078,0.11881 -9.355221,1.66365 -9.165825,3.00405 0.136773,0.96798 3.930906,1.25215 4.756103,1.463239 5.051269,1.29216 10.227945,2.11197 14.957809,4.46417 10.838658,5.39017 18.552523,14.78904 26.84636,23.23569 3.054762,3.11105 7.369285,7.31605 10.044065,10.21472 l 1.68527,2.00737 c 1.66086,1.80785 3.71247,3.92596 5.43918,5.65266 6.08083,6.08083 12.25554,12.37446 19.15371,17.5213 1.53277,1.14365 6.63804,6.51278 8.61039,5.69168 2.08871,-0.86956 -1.0933,-3.41361 -1.71734,-4.10418 1.57828,0.11671 3.16111,2.20965 4.42551,3.1162 1.4344,1.02845 4.37617,1.9997 5.19531,3.5893 0.81878,1.58891 0.0806,4.26 0.0806,5.9945 0,5.11382 -0.17639,10.22282 -0.17639,15.34583 -1.86164,-0.29669 -1.99382,-5.11252 -2.47829,-6.70277 -1.55071,-5.09021 -4.53763,-13.11842 -10.92726,-13.39861 -6.53905,-0.28675 -11.13045,5.90158 -13.99924,11.00402 -7.53369,13.39943 -11.33179,26.77635 -22.262573,38.17104 -3.460216,3.60708 -7.427976,6.70859 -11.539579,9.53004 -1.725256,1.18391 -4.991863,2.39324 -6.173612,4.08239 8.91468,0 15.185971,-6.39444 21.105284,-12.74246 1.52676,-1.63734 4.23803,-4.53283 5.63226,-6.34316 0.70719,-0.94743 3.80953,-6.21568 4.72274,-7.66243 l 1.307,-2.50254 c 1.36216,-2.48112 1.64323,-2.8499 2.74432,-5.39648 2.8553,-6.60374 5.02268,-14.26426 9.82034,-19.76836 6.66881,-7.65075 12.64099,-5.65966 15.93244,3.61544 0.92882,2.61735 1.85002,5.22547 2.48373,7.9375 1.94351,8.31758 2.76517,17.03326 0.73264,25.39999 -1.39461,5.74076 -4.79938,11.69234 -5.56686,17.4625 5.01606,0 5.0767,-5.2944 6.35885,-9.525 3.06198,-10.10338 4.57726,-20.68639 4.57726,-31.22083 0,-6.22335 0.70555,-12.46886 0.70555,-18.69722 0,-2.69833 -0.71916,-7.02537 0.45228,-9.51139 0.84903,-1.80181 3.41702,3.08265 4.07777,0.68161 1.86322,-6.77064 -0.63285,-14.80713 1.55714,-21.47657 0.5713,-1.73989 3.25143,-1.06625 4.12228,-2.85558 3.40222,-6.99058 5.37153,-14.95767 6.70903,-22.57695 1.24206,-7.07554 1.54458,-14.83843 -0.11664,-21.872229 -0.54835,-2.3218 -4.38513,-8.59436 -3.67259,-10.55012 0.7795,-2.13952 5.96816,-4.491916 7.86101,-5.626483 8.43559,-5.05628 18.08561,-7.215967 26.58436,-12.045614 2.34437,-1.332251 11.39011,-6.18161 6.88991,-9.67063 -2.34583,-1.818731 -7.15165,-2.06625 -10.01454,-2.353625 -8.75739,-0.879048 -18.91997,1.515422 -27.34028,-0.726107 -7.67034,-2.041876 -16.24311,-5.171756 -23.28334,-8.814686 -6.23576,-3.226676 -11.39566,-7.137742 -18.34444,-8.866383 -24.30464,-6.046251 -50.510659,7.240083 -70.555561,19.683003 -13.830317,8.58521 -27.303104,19.204565 -38.011263,31.529785 -2.023528,2.32911 -9.9236105,8.60398 -9.191412,11.847999 0.627851,2.78171 3.149301,0.6599 4.677164,0.93189 1.419086,0.25262 1.885959,1.9991 3.206712,2.52444 1.770717,0.7043 3.652528,-0.10215 5.452131,-0.10236 M 75.321058,85.323811 c 6.771163,-2.112826 13.622371,-2.574265 18.494705,-8.542074 4.575984,-5.604826 6.988227,-12.774554 12.685297,-17.46181 1.43115,-1.17748 3.63511,-3.258504 5.81766,-4.431148 2.02669,-1.021492 6.05831,-1.748492 8.15789,-2.072783 10.35051,-1.59874 18.07256,2.992894 21.46174,12.745313 0.70287,2.022508 2.78008,4.896482 1.94994,7.061821 -0.59605,1.55475 -5.45949,5.300333 -7.13735,4.302472 -1.24727,-0.741783 -1.50494,-3.375354 -2.3626,-4.563793 -2.6321,-3.647258 -7.54356,-4.260388 -11.61867,-3.163018 -3.14038,0.845664 -6.37093,2.918685 -7.81229,5.940464 -0.65515,1.373506 -0.45438,3.916449 -1.59157,4.890023 -2.92618,2.505176 -9.5236,2.202438 -13.15813,3.205219 -2.840012,0.783564 -5.575725,1.900014 -7.76982,3.920984 -1.005468,0.92613 -1.599989,2.84205 -2.886737,3.39738 -2.349179,1.01385 -13.109251,-3.00716 -14.230065,-5.22905 m 86.430562,50.447219 h -0.35278 c -0.64829,-2.72304 0.17788,-5.21941 -1.02118,-7.92172 -0.22987,-0.51805 -1.22256,-2.7349 -2.02085,-1.68726 -1.40211,1.84007 -0.95821,5.65753 -1.24235,7.84509 -0.7126,5.48631 -1.31687,11.05968 -1.69706,16.58055 -0.19152,2.78106 0.291,6.91134 -0.82764,9.49166 -0.47106,1.08655 -3.10038,1.23423 -4.03626,2.29251 -0.79642,0.90059 -1.10683,3.53307 -2.09162,3.98427 -1.42162,0.65132 -3.30519,-1.8562 -4.2302,-2.67265 -3.6424,-3.21493 -7.65813,-6.68046 -10.50045,-10.65179 -2.70644,-3.78148 -5.42861,-7.29064 -7.13219,-11.69298 -2.70559,-6.9917 -3.95251,-15.06645 -9.01229,-20.90712 -6.93768,-8.00842 -24.200256,-8.57564 -24.200256,-22.407779 0,-7.07909 9.296486,-10.63492 14.935066,-11.99445 2.22811,-0.53722 5.27828,-1.698208 7.539,-1.36265 3.28872,0.488144 6.02218,3.704489 9.90772,3.58956 4.96723,-0.146924 5.68166,-3.254747 9.41041,-3.837825 4.53466,-0.709108 9.55113,0.716405 13.78228,-2.801259 4.43316,-3.685617 2.78133,-13.818504 2.17478,-18.871156 -0.18664,-1.554761 -1.53956,-4.145537 -0.87445,-5.625938 0.79747,-1.775031 3.56618,-0.142056 4.78754,0.234515 4.78664,1.475814 9.57055,2.679778 14.46389,3.717494 1.2253,0.259847 5.19301,0.231048 5.06724,2.027385 -0.38772,5.537862 -10.66526,12.042062 -14.76849,14.713776 -2.04089,1.32887 -6.24915,2.906099 -6.24915,5.746656 0,2.818462 3.06481,3.366752 4.95522,4.688322 2.99504,2.0938 5.20487,4.6799 6.70686,8.01168 4.76668,10.573579 1.32657,29.408459 -3.47279,39.511109 m -42.68615,-59.972222 0.17909,-0.758445 c 3.97887,-3.9536 3.93964,5.346334 0,1.385274 M 5.2946354,212.14741 v 2.99861 c 2.2257101,-0.3933 4.2889851,1.52999 5.9521736,2.79731 3.203192,2.44081 6.788945,5.04106 10.635325,6.34102 12.618513,4.26473 28.582335,0.21028 41.620838,0.21028 3.50595,0 7.103712,-0.20563 10.583334,0.25126 1.084193,0.14235 2.705843,-0.24928 3.365406,0.84043 2.091125,3.45485 -7.766764,7.8034 -9.18624,9.84442 1.526054,0 3.780094,0.42024 5.209868,-0.13474 3.642978,-1.41406 11.063763,-9.57961 5.370882,-12.59656 -3.855213,-2.04307 -10.258531,-1.13258 -14.461306,-1.02961 -11.549952,0.28295 -24.905753,2.98046 -36.336112,0.97912 -8.312128,-1.45536 -14.735888,-10.50154 -22.7541686,-10.50154 m 0,19.05 v 4.23333 H 21.169637 c -0.406697,-1.01473 -1.239398,-3.54642 -2.216839,-4.08211 -1.134377,-0.62171 -2.776032,0.16814 -3.956773,0.19897 -3.266839,0.0853 -6.4849815,-0.27494 -9.7013896,-0.35019 z"
       id="path1"
       sodipodi:nodetypes="cssccsssscscssscscssscsssssssssccssscssscssssscscccssssscssssssssssssssssssssssccssccsssssssssscccssssssssssssssssssssssssssccccccscssscssssccccssc" /></g></svg>
